<?xml version="1.0" encoding="utf-8"?>
<!-- Generator: Adobe Illustrator 22.0.1, SVG Export Plug-In . SVG Version: 6.00 Build 0)  -->
<!DOCTYPE svg PUBLIC "-//W3C//DTD SVG 1.1//EN" "http://www.w3.org/Graphics/SVG/1.1/DTD/svg11.dtd">
<svg version="1.1" id="Layer_1" xmlns="http://www.w3.org/2000/svg" xmlns:xlink="http://www.w3.org/1999/xlink" x="0px" y="0px"
	 viewBox="0 0 256 256" style="enable-background:new 0 0 256 256;" xml:space="preserve">
<style type="text/css">
	.st0{fill:#313958;}
</style>
<g id="janey-logo">
	<path class="st0" d="M26.5,109.9c1.9,0,3.6,0,5.2-0.2c-0.1,1.4-0.1,5.1-0.1,6.9v17c0,6.9-2.4,10.1-8.9,10.1c-1.6,0-4.3-0.5-6.1-1.3
		l0.3-4.3c1.8,0.9,3.8,1.5,5.7,1.5c3.1,0,4.2-1.9,4.2-5.2v-13.3C26.8,118.2,26.7,112.2,26.5,109.9z M76.4,129.7l-5.3-11.8l-5.3,11.8
		l-1.7,3.8l-0.2,0.5c-1.2,2.9-2.6,6.1-3.7,9H55l11.3-24c1.9-3.9,3.1-6.7,4.1-9.4l1.2-0.3l11.4,24.2c1.4,3,3.2,6.8,4.7,9.6l-5.2,0.4
		l-4.5-9.8L76.4,129.7z M112.1,131.6l0.2-11.3c0-3,0-8.6-0.2-10.9l1.2-0.3l22,25.1v-13c0-3-0.1-9.1-0.4-11.3c1.9,0,3.7,0,5.3-0.2
		c-0.2,1.4-0.3,5.1-0.4,6.9l-0.3,19.8c0,1.8,0,5.6,0.1,6.9l-1.2,0.3L116.5,119v17.2c0,1.8,0,5.4,0.2,6.8h-5.2
		C111.8,140.7,112,134.7,112.1,131.6z M214.3,109.5l9.5,15.1l2.9-4.4c2-3,4.5-7.2,6.5-10.4h5.4l-12.5,18.6v7.7c0,1.8,0,5.4,0.1,6.8
		h-5.2c0.2-2.3,0.3-8.3,0.3-11.3v-3l-5.1-7.7c-2-3.1-5.2-8-7.3-11.1L214.3,109.5z M167.7,113.7c-0.1-1.8-0.1-3.1-0.2-4
		c2.8,0.1,7,0.2,10.3,0.2c3.4,0,6.6-0.1,9.5-0.2c-0.2,1.4-0.3,2.6-0.4,4.1c-2.8,0-5.7-0.1-9.1-0.1c-1.4,0-3.9,0-5.3,0
		C171.6,113.7,167.7,113.7,167.7,113.7z M167.8,123.6c0,0,4.7,0,4.7,0l7.8-0.1c-0.1,1.1-0.1,2.7-0.1,4l-7.7-0.1c0,0-4.6,0-4.7,0
		V123.6z M167.7,139l4.8,0.1c1.4,0,3.9,0,5.3,0c3.9,0,7.2,0,10.4-0.1c-0.2,1.3-0.3,2.6-0.3,4.1c-2.9-0.2-6.4-0.2-9.8-0.2
		c-3.4,0-7.9,0-10.7,0.2C167.6,142.2,167.7,140.8,167.7,139z"/>
</g>
</svg>
